# xmcd CD database file
#
# Track frame offsets:
#	225
#	23714
#	35933
#	49604
#	65818
#	79753
#	103309
#	118647
#	133192
#	148213
#
# Disc length: 2153 seconds
#
# Revision: 0
# Processed by: cddbd v1.5.2PL0 Copyright (c) Steve Scherf et al.
# Submitted via: CDex 1.51
#
DISCID=9a08660a
DTITLE=Diana Krall - The String Quartet Tribute to Diana Krall
DYEAR=2006
DGENRE=Jazz
TTITLE0=Only Trust Your Heart
TTITLE1=Let's Fall in Love
TTITLE2=Gee Baby, Ain't I Good to You
TTITLE3=Detroit Blues
TTITLE4=How Deep Is the Ocean
TTITLE5=Peel Me a Grape
TTITLE6=My Love
TTITLE7=Departure Bay
TTITLE8=I'm Coming Through
TTITLE9=Abandoned Masquerade
EXTD=YEAR: 2006
EXTT0=
EXTT1=
EXTT2=
EXTT3=
EXTT4=
EXTT5=
EXTT6=
EXTT7=
EXTT8=
EXTT9=
PLAYORDER=
